<svg width="201" height="250" viewBox="0 0 201 250" fill="none" xmlns="http://www.w3.org/2000/svg">
<g filter="url(#filter0_d_97_1531)">
<mask id="path-1-outside-1_97_1531" maskUnits="userSpaceOnUse" x="16" y="46.3779" width="169" height="182" fill="black">
<rect fill="white" x="16" y="46.3779" width="169" height="182"/>
<path d="M68.3955 225.378H19.9336V49.5967H68.3955V126.379H132.604V49.5967H181.066V225.378H132.604V148.718H68.3955V225.378Z"/>
</mask>
<path d="M68.3955 225.378H19.9336V49.5967H68.3955V126.379H132.604V49.5967H181.066V225.378H132.604V148.718H68.3955V225.378Z" fill="white"/>
<path d="M68.3955 225.378V228.378C70.0524 228.378 71.3955 227.035 71.3955 225.378H68.3955ZM19.9336 225.378H16.9336C16.9336 227.035 18.2767 228.378 19.9336 228.378V225.378ZM19.9336 49.5967V46.5967C18.2767 46.5967 16.9336 47.9398 16.9336 49.5967H19.9336ZM68.3955 49.5967H71.3955C71.3955 47.9398 70.0524 46.5967 68.3955 46.5967V49.5967ZM68.3955 126.379H65.3955C65.3955 128.036 66.7387 129.379 68.3955 129.379V126.379ZM132.604 126.379V129.379C134.261 129.379 135.604 128.036 135.604 126.379H132.604ZM132.604 49.5967V46.5967C130.948 46.5967 129.604 47.9398 129.604 49.5967H132.604ZM181.066 49.5967H184.066C184.066 47.9398 182.723 46.5967 181.066 46.5967V49.5967ZM181.066 225.378V228.378C182.723 228.378 184.066 227.035 184.066 225.378H181.066ZM132.604 225.378H129.604C129.604 227.035 130.948 228.378 132.604 228.378V225.378ZM132.604 148.718H135.604C135.604 147.061 134.261 145.718 132.604 145.718V148.718ZM68.3955 148.718V145.718C66.7387 145.718 65.3955 147.061 65.3955 148.718H68.3955ZM68.3955 225.378V222.378H19.9336V225.378V228.378H68.3955V225.378ZM19.9336 225.378H22.9336V49.5967H19.9336H16.9336V225.378H19.9336ZM19.9336 49.5967V52.5967H68.3955V49.5967V46.5967H19.9336V49.5967ZM68.3955 49.5967H65.3955V126.379H68.3955H71.3955V49.5967H68.3955ZM68.3955 126.379V129.379H132.604V126.379V123.379H68.3955V126.379ZM132.604 126.379H135.604V49.5967H132.604H129.604V126.379H132.604ZM132.604 49.5967V52.5967H181.066V49.5967V46.5967H132.604V49.5967ZM181.066 49.5967H178.066V225.378H181.066H184.066V49.5967H181.066ZM181.066 225.378V222.378H132.604V225.378V228.378H181.066V225.378ZM132.604 225.378H135.604V148.718H132.604H129.604V225.378H132.604ZM132.604 148.718V145.718H68.3955V148.718V151.718H132.604V148.718ZM68.3955 148.718H65.3955V225.378H68.3955H71.3955V148.718H68.3955Z" fill="#242657" mask="url(#path-1-outside-1_97_1531)"/>
<mask id="path-3-outside-2_97_1531" maskUnits="userSpaceOnUse" x="76" y="3" width="48" height="212" fill="black">
<rect fill="white" x="76" y="3" width="48" height="212"/>
<path d="M120.63 212H79.3701V6.06738H95.2393L120.63 48.9141V212Z"/>
</mask>
<path d="M120.63 212H79.3701V6.06738H95.2393L120.63 48.9141V212Z" fill="white"/>
<path d="M120.63 212V215C122.287 215 123.63 213.657 123.63 212H120.63ZM79.3701 212H76.3701C76.3701 213.657 77.7133 215 79.3701 215V212ZM79.3701 6.06738V3.06738C77.7133 3.06738 76.3701 4.41053 76.3701 6.06738H79.3701ZM95.2393 6.06738L97.8201 4.53798C97.2799 3.62638 96.2989 3.06738 95.2393 3.06738V6.06738ZM120.63 48.9141H123.63C123.63 48.3759 123.485 47.8476 123.211 47.3847L120.63 48.9141ZM120.63 212V209H79.3701V212V215H120.63V212ZM79.3701 212H82.3701V6.06738H79.3701H76.3701V212H79.3701ZM79.3701 6.06738V9.06738H95.2393V6.06738V3.06738H79.3701V6.06738ZM95.2393 6.06738L92.6584 7.59679L118.049 50.4435L120.63 48.9141L123.211 47.3847L97.8201 4.53798L95.2393 6.06738ZM120.63 48.9141H117.63V212H120.63H123.63V48.9141H120.63Z" fill="#242657" mask="url(#path-3-outside-2_97_1531)"/>
</g>
<defs>
<filter id="filter0_d_97_1531" x="2.93359" y="3.06738" width="181.133" height="239.311" filterUnits="userSpaceOnUse" color-interpolation-filters="sRGB">
<feFlood flood-opacity="0" result="BackgroundImageFix"/>
<feColorMatrix in="SourceAlpha" type="matrix" values="0 0 0 0 0 0 0 0 0 0 0 0 0 0 0 0 0 0 127 0" result="hardAlpha"/>
<feOffset dx="-10" dy="10"/>
<feGaussianBlur stdDeviation="2"/>
<feComposite in2="hardAlpha" operator="out"/>
<feColorMatrix type="matrix" values="0 0 0 0 0 0 0 0 0 0 0 0 0 0 0 0 0 0 0.25 0"/>
<feBlend mode="normal" in2="BackgroundImageFix" result="effect1_dropShadow_97_1531"/>
<feBlend mode="normal" in="SourceGraphic" in2="effect1_dropShadow_97_1531" result="shape"/>
</filter>
</defs>
</svg>
